<svg xmlns="http://www.w3.org/2000/svg" viewBox="0 0 128 128">
  <defs>
    <radialGradient id="g" cx="50%" cy="40%" r="70%">
      <stop offset="0%" stop-color="#00f6c3"/>
      <stop offset="60%" stop-color="#00dba5"/>
      <stop offset="100%" stop-color="#00b98b"/>
    </radialGradient>
  </defs>
  <rect width="128" height="128" rx="20" fill="#000"/>
  <g transform="translate(64,64)">
    <circle r="46" fill="none" stroke="url(#g)" stroke-width="3.5" opacity="0.95"/>
    <!-- thorns -->
    <g fill="#00f6c3" opacity="0.9">
      <path transform="translate(0,-46)" d="M0,0 L3,6 L-3,6 Z"/>
      <path transform="rotate(45) translate(0,-46)" d="M0,0 L3,6 L-3,6 Z"/>
      <path transform="rotate(90) translate(0,-46)" d="M0,0 L3,6 L-3,6 Z"/>
      <path transform="rotate(135) translate(0,-46)" d="M0,0 L3,6 L-3,6 Z"/>
      <path transform="rotate(180) translate(0,-46)" d="M0,0 L3,6 L-3,6 Z"/>
      <path transform="rotate(225) translate(0,-46)" d="M0,0 L3,6 L-3,6 Z"/>
      <path transform="rotate(270) translate(0,-46)" d="M0,0 L3,6 L-3,6 Z"/>
      <path transform="rotate(315) translate(0,-46)" d="M0,0 L3,6 L-3,6 Z"/>
    </g>
    <!-- glyph -->
    <g stroke="url(#g)" stroke-width="8" stroke-linecap="round" stroke-linejoin="round">
      <path d="M0,-30 L0,30"/>
      <path d="M-22,0 L22,0"/>
      <path d="M-14,-18 L-26,0 L-14,18"/>
      <path d="M14,-18 L26,0 L14,18"/>
    </g>
    <!-- core -->
    <circle r="12" fill="none" stroke="url(#g)" stroke-width="2.2"/>
    <path d="M -6 -10 L -2 -2 L -5 2 L -1 6 L 2 2 L 6 10" stroke="#00ffd0" stroke-width="1.4" fill="none"/>
  </g>
</svg>
